<svg width="370" height="87" viewBox="0 0 370 87" fill="none" xmlns="http://www.w3.org/2000/svg">
<path d="M76.228 54.8104C75.8223 54.661 75.3911 54.5932 74.9591 54.6106C74.5271 54.628 74.1027 54.7304 73.7104 54.912C73.3181 55.0935 72.9655 55.3506 72.6729 55.6685C72.3802 55.9864 72.1532 56.3588 72.005 56.7645C72.005 56.7645 69.846 64.986 49.7882 68.6794C48.446 65.6501 45.0967 60.3883 38.3348 61.1851L39.715 64.284C40.5124 64.3566 41.316 64.3162 42.1019 64.1639C41.2662 65.1378 36.3088 67.054 32.8582 66.2571C33.115 66.1733 33.3551 66.0448 33.5673 65.8777L32.3453 63.7211C32.3453 63.7211 28.3249 66.1181 29.8951 69.7039C31.4653 73.2897 36.3467 71.6011 36.3467 71.6011C36.3467 71.6011 34.593 73.081 32.9278 73.081C31.8641 76.0217 35.4983 81.0621 39.4491 80.4676C39.2505 80.7272 38.9947 80.9375 38.7015 81.0823C38.4083 81.2271 38.0857 81.3024 37.7586 81.3024C40.3988 82.7127 48.9082 83.0606 50.4214 75.2375C74.7718 70.8675 78.1717 59.0666 78.1907 59.0286C78.3392 58.6229 78.4062 58.192 78.3879 57.7604C78.3697 57.3288 78.2664 56.9051 78.0842 56.5134C77.9019 56.1217 77.6442 55.7697 77.3257 55.4775C77.0072 55.1853 76.6342 54.9586 76.228 54.8104Z" fill="#42E8E0"/>
<path d="M22.5639 58.8901L25.9258 65.638C26.559 66.8649 26.559 68.4965 25.6979 69.0151L20.6328 72.0381C20.812 72.1449 20.9796 72.2699 21.133 72.4112C21.6183 72.8481 21.9806 73.4044 22.1839 74.0247C22.3872 74.6449 22.4243 75.3075 22.2916 75.9465C29.7943 74.0745 30.7187 62.7858 22.5639 58.8901Z" fill="#42E8E0"/>
<path d="M16.5298 73.2776C18.3406 70.5076 16.5298 67.7566 14.2442 67.3645C14.0358 67.3236 13.8231 67.3088 13.611 67.3202C15.2445 64.0633 13.5034 60.9454 11.2811 60.5154C8.14708 59.883 6.81116 65.5115 6.60856 68.7937C6.40595 72.076 9.71093 71.2223 9.71093 71.2223C9.93253 71.0831 10.1478 70.9503 10.3441 70.8112C9.99311 71.9105 9.78044 73.0492 9.71093 74.2009C9.55264 76.933 12.8766 76.269 12.8766 76.269C13.0982 76.1615 13.3071 76.0476 13.5097 75.9401C13.3388 76.1425 13.1805 76.3385 13.0412 76.5282C11.4014 78.7227 14.5164 79.9749 14.5164 79.9749C22.0634 80.9109 22.9371 75.51 20.6199 73.3282C19.3979 72.2404 17.9227 72.4871 16.5298 73.2776Z" fill="#42E8E0"/>
<path d="M57.8316 30.4312C56.3881 30.4312 55.2168 32.0628 55.2168 34.0676C55.2168 36.0723 56.3881 37.704 57.8316 37.704C59.2752 37.704 60.4465 36.0787 60.4465 34.0676C60.4465 32.0565 59.2879 30.4312 57.8316 30.4312Z" fill="#42E8E0"/>
<path d="M75.9697 23.7526C76.4614 23.0088 77.109 22.3804 77.8676 21.9109C78.6262 21.4414 79.4778 21.1419 80.3636 21.0332C76.3875 16.7138 65.9218 15.7398 65.9218 15.7398C66.3939 16.371 66.685 17.1188 66.7639 17.9027C65.4976 16.1573 61.7368 12.3185 56.9882 13.0015C57.1971 12.5521 57.4562 12.1278 57.7607 11.7367C57.169 10.0138 56.691 8.254 56.3298 6.46863C57.087 6.20566 57.7239 5.67866 58.1234 4.98439C58.5229 4.29013 58.6583 3.47521 58.5047 2.68925C58.3511 1.90329 57.9188 1.19904 57.2872 0.705836C56.6556 0.212633 55.8671 -0.0364806 55.0665 0.00432324C54.2658 0.0451271 53.5067 0.373088 52.9287 0.927939C52.3506 1.48279 51.9923 2.22734 51.9196 3.02483C51.8469 3.82233 52.0646 4.61922 52.5328 5.26926C53.001 5.9193 53.6882 6.37881 54.4683 6.56343C54.5337 8.85089 54.8911 11.1207 55.532 13.3177C50.296 15.1327 49.3209 21.9123 49.3209 21.9123C49.0659 20.9494 49.0901 19.9339 49.3906 18.9842C47.9977 19.7494 36.5569 28.4705 37.0444 39.2596C37.5319 50.0486 47.8901 61.0653 64.5289 56.5372C81.1677 52.0091 82.1744 37.9315 82.1744 37.9315C82.1744 37.9315 79.5975 38.0011 78.9707 36.1923C89.0882 37.8746 86.8026 18.0608 75.9697 23.7526ZM70.5247 44.028C66.2573 51.3008 46.6175 54.5261 41.7486 47.462C39.6909 44.477 39.1591 42.2572 39.0008 38.8042C38.8679 35.8192 39.3111 33.4792 40.7926 31.076C43.7683 26.257 58.932 23.8095 66.5486 25.7763C71.6517 27.0538 72.69 40.3157 70.5247 43.99V44.028Z" fill="#42E8E0"/>
<path d="M56.8419 43.4398C56.7371 43.3634 56.6183 43.3083 56.4923 43.2778C56.3662 43.2472 56.2354 43.2418 56.1072 43.2618C55.979 43.2818 55.856 43.3268 55.7453 43.3942C55.6345 43.4616 55.5381 43.5502 55.4617 43.6548C53.0178 47.0383 48.5541 44.7047 48.5415 44.6983C48.3098 44.5792 48.0402 44.557 47.792 44.6364C47.5438 44.7159 47.3375 44.8906 47.2182 45.1221C47.099 45.3536 47.0767 45.6228 47.1563 45.8707C47.2358 46.1186 47.4107 46.3247 47.6424 46.4438C47.6424 46.4438 53.6129 49.568 57.0572 44.8122C57.1335 44.7081 57.1885 44.5899 57.219 44.4645C57.2495 44.3391 57.2549 44.2089 57.2349 44.0814C57.2149 43.9538 57.1699 43.8315 57.1024 43.7214C57.035 43.6114 56.9465 43.5156 56.8419 43.4398Z" fill="#42E8E0"/>
<path d="M43.3942 32.9541C42.0646 32.9541 40.9883 34.4529 40.9883 36.2995C40.9883 38.1462 42.0646 39.6387 43.3942 39.6387C44.7238 39.6387 45.8001 38.1462 45.8001 36.2995C45.8001 34.4529 44.7238 32.9541 43.3942 32.9541Z" fill="#42E8E0"/>
<path fill-rule="evenodd" clip-rule="evenodd" d="M21.9692 32.9292C25.7236 32.9292 30.6558 38.621 32.9794 45.5776C35.303 52.5342 34.1317 58.226 30.3709 58.226C26.61 58.226 21.6842 52.5342 19.3606 45.5776C17.037 38.621 18.2083 32.9292 21.9692 32.9292ZM46.5728 81.7836L47.8391 84.6231C47.9368 84.8195 47.9942 85.0334 48.0079 85.2523C48.0216 85.4712 47.9913 85.6905 47.9189 85.8975C47.8465 86.1045 47.7333 86.295 47.5861 86.4576C47.4388 86.6203 47.2605 86.7519 47.0616 86.8447C46.8627 86.9375 46.6472 86.9896 46.4278 86.998C46.2085 87.0064 45.9896 86.9709 45.7842 86.8935C45.5788 86.8161 45.3909 86.6985 45.2317 86.5476C45.0725 86.3966 44.9451 86.2153 44.857 86.0144L43.2869 82.9282C44.4449 82.758 45.56 82.3696 46.5728 81.7836ZM35.9741 58.5927L38.9245 64.841C37.4823 65.323 35.9751 65.5831 34.4546 65.6126L31.8271 60.724C26.686 60.6165 20.3547 53.6409 17.6322 45.0464C14.9097 36.4518 16.8534 29.375 22.0198 29.375C27.1862 29.375 33.5872 36.3885 36.3287 45.0464C38.1584 50.8267 37.8862 55.8797 35.9741 58.5927ZM0.651454 49.8527L11.3705 44.395C12.2568 43.9396 13.3395 44.1799 13.9916 45.4131L24.9259 66.1818C25.559 67.4466 25.654 69.0529 24.7993 69.5715L20.7092 72.1012C19.5379 71.3802 18.1767 71.6522 16.8154 72.3668C17.2319 71.8408 17.5013 71.214 17.5963 70.5501C17.6913 69.8862 17.6085 69.2091 17.3563 68.5876C17.1041 67.9661 16.6914 67.4225 16.1605 67.0121C15.6295 66.6017 14.9991 66.3392 14.3335 66.2513C14.0976 66.209 13.8575 66.1942 13.6181 66.2071C15.3719 62.8679 13.4851 59.6553 11.0855 59.2062C8.84424 58.7825 7.464 61.1541 6.72323 63.785L0.550152 53.2425C-0.171623 52.0409 -0.228605 50.3144 0.651454 49.8527Z" fill="#42E8E0"/>
<path d="M122.053 32.865H115.488L111.955 28.6721H104.42V32.865H99.5137V24.7638H113.303C114.823 24.7638 116.007 24.0807 116.007 22.993C116.007 21.7597 114.988 21.1463 113.303 21.1463H99.5137L102.711 17.0229H112.905C116.507 17.0229 121.053 18.1613 121.053 22.6831C121.083 23.8786 120.68 25.0449 119.918 25.9675C119.156 26.89 118.087 27.5069 116.906 27.7045C117.702 28.3393 118.447 29.0349 119.135 29.7851L122.053 32.865Z" fill="white"/>
<path d="M147.576 24.9346C147.576 30.5884 143.688 33.156 135.989 33.156C128.29 33.156 124.396 30.6263 124.396 24.9346C124.396 19.2428 128.265 16.7637 135.989 16.7637C143.713 16.7637 147.576 19.2744 147.576 24.9346ZM142.694 24.9346C142.694 21.5258 140.915 20.8871 135.989 20.8871C131.063 20.8871 129.278 21.5195 129.278 24.9346C129.278 28.3496 131.057 29.001 135.989 29.001C140.921 29.001 142.694 28.3433 142.694 24.9346Z" fill="white"/>
<path d="M172.103 28.2484C172.103 30.8729 170.66 32.865 165.658 32.865H151.723V23.2269H165.753C166.468 23.2269 167.127 22.9677 167.127 22.1645C167.127 21.3614 166.443 21.1463 165.753 21.1463H151.723L155.04 17.0229H165.544C169.343 17.0229 171.774 18.4964 171.774 21.4056C171.816 22.116 171.63 22.8212 171.241 23.4177C170.852 24.0142 170.283 24.4704 169.615 24.7194C170.366 24.9438 171.019 25.4138 171.471 26.0538C171.922 26.6938 172.145 27.4667 172.103 28.2484ZM156.655 26.6104V28.7923H165.683C166.747 28.7923 167.203 28.4128 167.203 27.6792C167.203 26.9456 166.747 26.6104 165.683 26.6104H156.655Z" fill="white"/>
<path d="M198.91 24.9346C198.91 30.5884 195.022 33.156 187.317 33.156C179.612 33.156 175.73 30.6263 175.73 24.9346C175.73 19.2428 179.593 16.7637 187.317 16.7637C195.041 16.7637 198.91 19.2744 198.91 24.9346ZM194.028 24.9346C194.028 21.5258 192.249 20.8871 187.317 20.8871C182.385 20.8871 180.612 21.5195 180.612 24.9346C180.612 28.3496 182.391 29.001 187.317 29.001C192.243 29.001 194.028 28.3433 194.028 24.9346Z" fill="white"/>
<path d="M212.847 22.9676H222.977V32.865H212.113C206.617 32.865 202.559 29.3804 202.559 24.789C202.559 20.1976 206.617 17.0229 212.113 17.0229H223.465L220.299 21.1463H212.113C209.46 21.1463 207.44 22.7527 207.44 25.0041C207.44 27.2555 209.384 28.7986 212.113 28.7986H218.108V26.5029H209.878L212.847 22.9676Z" fill="white"/>
<path d="M249.962 32.865H243.396L239.863 28.6721H232.329V32.865H227.422V24.7638H241.212C242.731 24.7638 243.915 24.0807 243.915 22.993C243.915 21.7597 242.896 21.1463 241.212 21.1463H227.422L230.619 17.0229H240.813C244.415 17.0229 248.961 18.1613 248.961 22.6831C248.991 23.8786 248.589 25.0449 247.827 25.9675C247.065 26.89 245.995 27.5069 244.814 27.7045C245.61 28.3393 246.355 29.0349 247.043 29.7851L249.962 32.865Z" fill="white"/>
<path d="M260.078 32.865L263.041 28.7923H267.024C267.973 28.7923 269.081 28.7923 269.841 28.8365C269.417 28.2674 268.752 27.2998 268.233 26.5409L265.39 22.3542L257.945 32.865H252.139L262.307 18.5407C262.644 18.0041 263.11 17.5603 263.663 17.2499C264.216 16.9395 264.838 16.7723 265.473 16.7637C266.104 16.7671 266.723 16.9322 267.272 17.2434C267.821 17.5546 268.28 18.0013 268.607 18.5407L278.509 32.865H260.078Z" fill="white"/>
<path d="M292.545 32.865H281.928V22.9929H286.86V28.7922H292.558C295.287 28.7922 297.25 27.2744 297.25 24.9977C297.25 22.721 295.211 21.14 292.558 21.14H281.928L285.055 17.0166H292.545C298.092 17.0166 302.099 20.2166 302.099 24.7826C302.099 29.3487 298.047 32.865 292.545 32.865Z" fill="white"/>
<path d="M311.221 32.8647H306.314V17.0542H311.221V32.8647Z" fill="white"/>
<path d="M330.039 32.2706L320.321 23.5558V32.8587H315.889V19.7171C315.889 17.6111 317.155 16.7573 318.567 16.7573C318.935 16.7587 319.299 16.8351 319.636 16.9819C319.974 17.1287 320.278 17.3428 320.53 17.6111L330.248 26.3195V17.0166H334.699V30.133C334.699 32.239 333.433 33.118 332.002 33.118C331.634 33.1209 331.269 33.047 330.931 32.9011C330.593 32.7552 330.289 32.5405 330.039 32.2706Z" fill="white"/>
<path d="M349.048 22.9676H359.178V32.865H348.313C342.818 32.865 338.766 29.3804 338.766 24.789C338.766 20.1976 342.818 17.0229 348.313 17.0229H359.665L356.5 21.1463H348.313C345.66 21.1463 343.641 22.7527 343.641 25.0041C343.641 27.2555 345.585 28.7986 348.313 28.7986H354.328V26.5029H346.097L349.048 22.9676Z" fill="white"/>
<path d="M100.376 47.107V59.251H101.432V55.043H105.928C108.92 55.043 109.288 53.907 109.288 51.475V50.851C109.288 48.179 108.92 47.107 106.152 47.107H100.376ZM101.432 48.003H106.024C108.04 48.003 108.28 48.867 108.28 50.819V51.523C108.28 53.251 108.04 54.163 105.864 54.163H101.432V48.003ZM114.952 50.579C111.176 50.579 110.904 52.179 110.904 54.883C110.904 57.635 111.176 59.395 114.952 59.395C118.712 59.395 118.984 57.683 118.984 54.883C118.984 52.179 118.712 50.579 114.952 50.579ZM114.952 51.379C117.784 51.379 118.008 52.563 118.008 54.659V55.171C118.008 57.331 117.8 58.595 114.952 58.595C112.104 58.595 111.88 57.315 111.88 55.155V54.659C111.88 52.563 112.104 51.379 114.952 51.379ZM120.455 50.739L122.967 59.251H124.151L126.599 51.603L129.015 59.251H130.199L132.727 50.739H131.799L129.591 58.355L127.191 50.739H126.007L123.623 58.355L121.383 50.739H120.455ZM138.217 50.579C134.457 50.579 134.201 52.227 134.201 54.883C134.201 57.603 134.393 59.395 138.217 59.395C141.513 59.395 142.057 58.307 142.121 56.499H141.193C141.177 57.875 140.745 58.611 138.217 58.611C135.257 58.611 135.177 57.283 135.177 55.155H142.169C142.185 55.011 142.185 54.851 142.185 54.675C142.185 52.067 142.041 50.579 138.217 50.579ZM138.233 51.363C141.161 51.363 141.257 52.419 141.257 54.483V54.563H135.177C135.177 52.643 135.257 51.363 138.233 51.363ZM144.346 50.739V59.251H145.306V53.187C145.962 51.939 147.05 51.395 148.698 51.395C149.306 51.395 149.77 51.491 150.138 51.683V50.787C149.818 50.675 149.338 50.579 148.778 50.579C147.146 50.579 145.946 51.107 145.242 52.275V50.739H144.346ZM155.357 50.579C151.597 50.579 151.341 52.227 151.341 54.883C151.341 57.603 151.533 59.395 155.357 59.395C158.653 59.395 159.197 58.307 159.261 56.499H158.333C158.317 57.875 157.885 58.611 155.357 58.611C152.397 58.611 152.317 57.283 152.317 55.155H159.309C159.325 55.011 159.325 54.851 159.325 54.675C159.325 52.067 159.181 50.579 155.357 50.579ZM155.373 51.363C158.301 51.363 158.397 52.419 158.397 54.483V54.563H152.317C152.317 52.643 152.397 51.363 155.373 51.363ZM168.111 47.107V52.195C167.599 51.219 166.591 50.579 164.687 50.579C161.631 50.579 161.343 52.115 161.343 54.851C161.343 57.603 161.631 59.395 164.719 59.395C166.543 59.395 167.631 58.851 168.175 57.779V59.251H169.055V47.107H168.111ZM162.287 54.563C162.287 52.515 162.607 51.379 164.959 51.379C166.847 51.379 167.711 52.051 168.111 53.139V56.851C167.679 58.035 166.767 58.595 164.959 58.595C162.607 58.595 162.287 57.283 162.287 55.235V54.563ZM176.253 47.107V59.251H177.149V57.779C177.677 58.835 178.733 59.395 180.605 59.395C183.693 59.395 183.981 57.603 183.981 54.851C183.981 52.115 183.693 50.579 180.637 50.579C178.733 50.579 177.725 51.219 177.213 52.195V47.107H176.253ZM177.213 53.139C177.597 52.051 178.477 51.379 180.365 51.379C182.717 51.379 183.021 52.515 183.021 54.563V55.235C183.021 57.283 182.717 58.595 180.365 58.595C178.557 58.595 177.645 58.035 177.213 56.851V53.139ZM185.049 50.739L188.937 59.539L187.625 62.867H188.617L193.433 50.739H192.473L189.337 58.531L186.041 50.739H185.049ZM203.59 47.107L199.142 59.251H201.03L202.054 56.355H207.206L208.198 59.251H210.102L205.798 47.107H203.59ZM204.678 48.979L206.694 54.851H202.598L204.678 48.979ZM216.35 46.931C211.694 46.931 211.246 48.515 211.246 53.171C211.246 57.747 211.774 59.251 215.678 59.251H221.214V52.835H216.654V54.403H219.406V57.619H215.774C213.518 57.619 213.182 56.611 213.182 54.115V52.163C213.182 49.507 213.47 48.531 216.334 48.531C218.942 48.531 219.342 49.315 219.358 50.899C219.358 50.963 219.358 51.075 219.342 51.139H221.118V50.963C221.118 48.227 220.51 46.931 216.35 46.931ZM223.167 55.379C223.151 55.603 223.119 55.923 223.119 56.243C223.119 58.659 224.511 59.395 227.855 59.395C231.231 59.395 232.511 58.547 232.511 55.779C232.511 54.435 232.175 53.379 230.959 52.835C229.615 52.291 227.711 52.355 226.559 52.083C225.567 51.859 225.135 51.411 225.135 50.307C225.135 48.995 225.839 48.499 227.919 48.499C229.823 48.499 230.463 48.931 230.463 50.115C230.463 50.291 230.463 50.515 230.447 50.691H232.239C232.255 50.499 232.271 50.211 232.271 49.923C232.271 47.443 230.895 46.931 227.999 46.931C224.655 46.931 223.215 47.603 223.215 50.275C223.215 53.091 225.199 53.411 227.487 53.731C228.223 53.843 228.943 53.971 229.519 54.195C230.335 54.515 230.559 54.995 230.559 55.891C230.559 57.203 229.903 57.827 227.839 57.827C225.583 57.827 224.975 57.299 224.975 56.035C224.975 55.811 224.991 55.555 225.007 55.379H223.167ZM239.362 47.107V59.251H241.266V47.107H239.362ZM243.58 50.739V59.251H245.324V53.331C245.66 52.611 246.236 52.003 247.98 52.003C249.676 52.003 249.948 52.419 249.948 53.267V59.251H251.676V52.867C251.676 51.395 251.244 50.579 248.588 50.579C246.54 50.579 245.692 51.251 245.196 51.971V50.739H243.58ZM255.429 54.547C255.429 52.883 255.573 52.003 257.909 52.003C259.941 52.003 260.181 52.515 260.197 53.603H261.845C261.829 51.635 261.381 50.579 257.909 50.579C253.925 50.579 253.669 52.163 253.669 54.899C253.669 57.779 253.925 59.395 257.909 59.395C261.269 59.395 261.797 58.339 261.829 56.339H260.197C260.181 57.459 259.877 57.971 257.909 57.971C255.573 57.971 255.429 57.059 255.429 55.331V54.547ZM263.672 56.979V59.251H265.368V56.979H263.672Z" fill="white"/>
</svg>
